<?xml version="1.0" encoding="iso-8859-1"?>
<!-- Generator: Adobe Illustrator 19.0.0, SVG Export Plug-In . SVG Version: 6.00 Build 0)  -->
<svg version="1.1" id="Capa_1" xmlns="http://www.w3.org/2000/svg" xmlns:xlink="http://www.w3.org/1999/xlink" x="0px" y="0px"
	 viewBox="0 0 512 512" style="enable-background:new 0 0 512 512;" xml:space="preserve">
<g>
	<g>
		<path d="M471.04,0c-20.48,0-38.4,17.92-38.4,38.4v38.4h76.8V38.4C509.44,17.92,494.08,0,471.04,0z"/>
	</g>
</g>
<g>
	<g>
		<path d="M435.2,128v243.2c0,20.48,17.92,140.8,38.4,140.8S512,391.68,512,371.2V128H435.2z"/>
	</g>
</g>
<g>
	<g>
		<path d="M281.6,0h-256C10.24,0,0,10.24,0,25.6v460.8C0,501.76,12.8,512,25.6,512h332.8c15.36,0,25.6-10.24,25.6-25.6v-384L281.6,0
			z M76.8,76.8h153.6c15.36,0,25.6,10.24,25.6,25.6c0,15.36-10.24,25.6-25.6,25.6H76.8c-15.36,0-25.6-10.24-25.6-25.6
			C51.2,87.04,61.44,76.8,76.8,76.8z M325.12,350.72l-102.4,102.4c-10.24,10.24-30.72,10.24-38.4-5.12l-33.28-51.2l-53.76,53.76
			c-10.24,10.24-25.6,10.24-35.84,0s-10.24-25.6,0-35.84l76.8-76.8c10.24-10.24,30.72-10.24,38.4,5.12l33.28,51.2l79.36-79.36
			c10.24-10.24,25.6-10.24,35.84,0S335.36,340.48,325.12,350.72z M307.2,230.4H76.8c-15.36,0-25.6-10.24-25.6-25.6
			c0-15.36,10.24-25.6,25.6-25.6h230.4c15.36,0,25.6,10.24,25.6,25.6C332.8,220.16,322.56,230.4,307.2,230.4z"/>
	</g>
</g>
<g>
</g>
<g>
</g>
<g>
</g>
<g>
</g>
<g>
</g>
<g>
</g>
<g>
</g>
<g>
</g>
<g>
</g>
<g>
</g>
<g>
</g>
<g>
</g>
<g>
</g>
<g>
</g>
<g>
</g>
</svg>
